<?xml version="1.0" standalone="no"?>
<svg viewBox="0 0 200 200" xmlns="http://www.w3.org/2000/svg">
  <path fill="#DECADD" d="M27.4,-35.1C39.3,-29.1,55.4,-26.2,59.6,-18.2C63.7,-10.3,56,2.7,48.5,12.7C41.1,22.7,33.9,29.8,25.9,43.4C17.8,57.1,8.9,77.3,-3.7,82.4C-16.4,87.6,-32.8,77.7,-48.4,66.5C-63.9,55.3,-78.6,42.8,-76.7,29.5C-74.8,16.1,-56.3,1.9,-46.2,-10.7C-36.2,-23.3,-34.5,-34.3,-28.2,-42.1C-21.9,-49.8,-11,-54.4,-1.6,-52.1C7.8,-49.9,15.5,-41,27.4,-35.1Z" transform="translate(100 100)" />
</svg>
